<svg width="24" height="24" viewBox="0 0 24 24" fill="none" xmlns="http://www.w3.org/2000/svg">
<path d="M4.5 10.5C3.60999 10.5 2.73996 10.7639 1.99994 11.2584C1.25991 11.7529 0.683138 12.4557 0.342544 13.2779C0.00194978 14.1002 -0.0871652 15.005 0.0864682 15.8779C0.260102 16.7508 0.688685 17.5526 1.31802 18.182C1.94736 18.8113 2.74918 19.2399 3.6221 19.4135C4.49501 19.5872 5.39981 19.498 6.22208 19.1575C7.04434 18.8169 7.74715 18.2401 8.24161 17.5001C8.73608 16.76 9 15.89 9 15C9 13.8065 8.52589 12.6619 7.68198 11.818C6.83807 10.9741 5.69348 10.5 4.5 10.5Z" fill="#BF6700"/>
<path d="M24 15C24 15.89 23.7361 16.76 23.2416 17.5001C22.7471 18.2401 22.0443 18.8169 21.2221 19.1575C20.3998 19.498 19.495 19.5872 18.6221 19.4135C17.7492 19.2399 16.9474 18.8113 16.318 18.182C15.6887 17.5526 15.2601 16.7508 15.0865 15.8779C14.9128 15.005 15.0019 14.1002 15.3425 13.2779C15.6831 12.4557 16.2599 11.7529 16.9999 11.2584C17.74 10.7639 18.61 10.5 19.5 10.5C20.6935 10.5 21.8381 10.9741 22.682 11.818C23.5259 12.6619 24 13.8065 24 15Z" fill="#BF6700"/>
<path opacity="0.95" d="M15.5531 6.75L17.9156 10.7906L18.6844 12.1125L20.1469 14.625C20.2056 14.7102 20.246 14.8065 20.2657 14.9081C20.2854 15.0096 20.2838 15.1141 20.2611 15.215C20.2385 15.3159 20.1952 15.4111 20.134 15.4944C20.0728 15.5778 19.995 15.6476 19.9055 15.6995C19.816 15.7514 19.7168 15.7842 19.614 15.7959C19.5113 15.8075 19.4072 15.7978 19.3084 15.7674C19.2095 15.7369 19.1181 15.6863 19.0397 15.6188C18.9614 15.5512 18.8979 15.4683 18.8531 15.375L17.3906 12.8719L16.6219 11.55L15.5719 9.75H10.1813L13.0219 14.625C13.0806 14.7102 13.121 14.8065 13.1407 14.9081C13.1604 15.0096 13.1588 15.1141 13.1361 15.215C13.1135 15.3159 13.0702 15.4111 13.009 15.4944C12.9478 15.5778 12.87 15.6476 12.7805 15.6995C12.691 15.7514 12.5918 15.7842 12.489 15.7959C12.3863 15.8075 12.2822 15.7978 12.1834 15.7674C12.0845 15.7369 11.9931 15.6863 11.9147 15.6188C11.8364 15.5512 11.7729 15.4683 11.7281 15.375L8.80313 10.3688L7.71563 11.8594L6.81563 13.0969L5.10938 15.4406C5.04012 15.5373 4.94858 15.616 4.84251 15.6698C4.73643 15.7237 4.61895 15.7512 4.5 15.75C4.34217 15.7495 4.18833 15.7004 4.05938 15.6094C3.97914 15.5517 3.91109 15.4787 3.85915 15.3946C3.80721 15.3105 3.7724 15.217 3.75672 15.1195C3.74104 15.0219 3.7448 14.9222 3.76778 14.8261C3.79076 14.7299 3.83251 14.6393 3.89063 14.5594L5.60625 12.2156L6.50625 10.9781L7.97813 8.95313L6.69375 6.75H4.5C4.30109 6.75 4.11032 6.67098 3.96967 6.53033C3.82902 6.38968 3.75 6.19891 3.75 6C3.75 5.80109 3.82902 5.61032 3.96967 5.46967C4.11032 5.32902 4.30109 5.25 4.5 5.25H7.125C7.2564 5.24951 7.38556 5.28398 7.49924 5.34988C7.61291 5.41578 7.70701 5.51073 7.77188 5.625L9.30938 8.25H14.6906L13.6031 6.375C13.5344 6.26198 13.4981 6.13226 13.4981 6C13.4981 5.86774 13.5344 5.73802 13.6031 5.625C13.6672 5.51007 13.7612 5.41457 13.875 5.34857C13.9889 5.28257 14.1184 5.24852 14.25 5.25H18C18.596 5.25247 19.1668 5.49031 19.5883 5.91174C20.0097 6.33316 20.2475 6.90402 20.25 7.5C20.25 7.69891 20.171 7.88968 20.0303 8.03033C19.8897 8.17098 19.6989 8.25 19.5 8.25C19.3011 8.25 19.1103 8.17098 18.9697 8.03033C18.829 7.88968 18.75 7.69891 18.75 7.5C18.75 7.30109 18.671 7.11032 18.5303 6.96967C18.3897 6.82902 18.1989 6.75 18 6.75H15.5531Z" fill="#190039"/>
<circle cx="4.5" cy="15" r="0.375" fill="#9E00FF"/>
<circle cx="19.5" cy="15" r="0.375" fill="#9E00FF"/>
</svg>
