<svg width="24" height="24" viewBox="0 0 24 24" fill="none" xmlns="http://www.w3.org/2000/svg">
<path d="M18.633 19.7393C20.3273 18.4979 21.4851 16.8848 22.1274 15.1392C22.391 14.4205 21.7778 13.6579 21.0167 13.8026C19.5671 14.0776 18.0745 14.0265 16.6471 13.6529C15.2197 13.2793 13.8934 12.5927 12.7644 11.6428C11.6328 10.6959 10.7263 9.50892 10.1105 8.16808C9.49474 6.82725 9.1852 5.36615 9.20434 3.8908C9.20822 3.12387 8.36354 2.63702 7.7028 3.03554C6.7432 3.58796 5.85598 4.31861 5.10392 5.21488C1.21506 9.84945 2.25099 16.9847 7.64572 20.2321C11.0407 22.2845 15.4382 22.0843 18.633 19.7393V19.7393Z" fill="#222222"/>
</svg>
