<svg width="24" height="24" viewBox="0 0 24 24" fill="none" xmlns="http://www.w3.org/2000/svg">
<path d="M12 6.935C13.3261 6.935 14.5979 7.46178 15.5355 8.39946C16.4732 9.33715 17 10.6089 17 11.935C17 13.2611 16.4732 14.5328 15.5355 15.4705C14.5979 16.4082 13.3261 16.935 12 16.935C10.6739 16.935 9.40215 16.4082 8.46447 15.4705C7.52678 14.5328 7 13.2611 7 11.935C7 10.6089 7.52678 9.33715 8.46447 8.39946C9.40215 7.46178 10.6739 6.935 12 6.935ZM12 21.935C11.7348 21.935 11.4804 21.8296 11.2929 21.6421C11.1054 21.4546 11 21.2002 11 20.935V18.935C11 18.6698 11.1054 18.4154 11.2929 18.2279C11.4804 18.0404 11.7348 17.935 12 17.935C12.2652 17.935 12.5196 18.0404 12.7071 18.2279C12.8946 18.4154 13 18.6698 13 18.935V20.935C13 21.2002 12.8946 21.4546 12.7071 21.6421C12.5196 21.8296 12.2652 21.935 12 21.935ZM12 5.935C11.7348 5.935 11.4804 5.82964 11.2929 5.64211C11.1054 5.45457 11 5.20021 11 4.935V2.935C11 2.66978 11.1054 2.41543 11.2929 2.22789C11.4804 2.04036 11.7348 1.935 12 1.935C12.2652 1.935 12.5196 2.04036 12.7071 2.22789C12.8946 2.41543 13 2.66978 13 2.935V4.935C13 5.20021 12.8946 5.45457 12.7071 5.64211C12.5196 5.82964 12.2652 5.935 12 5.935ZM21 12.935H19C18.7348 12.935 18.4804 12.8296 18.2929 12.6421C18.1054 12.4546 18 12.2002 18 11.935C18 11.6698 18.1054 11.4154 18.2929 11.2279C18.4804 11.0404 18.7348 10.935 19 10.935H21C21.2652 10.935 21.5196 11.0404 21.7071 11.2279C21.8946 11.4154 22 11.6698 22 11.935C22 12.2002 21.8946 12.4546 21.7071 12.6421C21.5196 12.8296 21.2652 12.935 21 12.935ZM5 12.935H3C2.73478 12.935 2.48043 12.8296 2.29289 12.6421C2.10536 12.4546 2 12.2002 2 11.935C2 11.6698 2.10536 11.4154 2.29289 11.2279C2.48043 11.0404 2.73478 10.935 3 10.935H5C5.26522 10.935 5.51957 11.0404 5.70711 11.2279C5.89464 11.4154 6 11.6698 6 11.935C6 12.2002 5.89464 12.4546 5.70711 12.6421C5.51957 12.8296 5.26522 12.935 5 12.935ZM4.929 19.006C4.74153 18.8185 4.63621 18.5642 4.63621 18.299C4.63621 18.0338 4.74153 17.7795 4.929 17.592L6.343 16.178C6.43525 16.0825 6.54559 16.0063 6.6676 15.9539C6.7896 15.9015 6.92082 15.8739 7.0536 15.8727C7.18638 15.8716 7.31806 15.8969 7.44095 15.9472C7.56385 15.9975 7.6755 16.0717 7.76939 16.1656C7.86329 16.2595 7.93754 16.3711 7.98782 16.494C8.0381 16.6169 8.0634 16.7486 8.06225 16.8814C8.0611 17.0142 8.03351 17.1454 7.9811 17.2674C7.92869 17.3894 7.85251 17.4998 7.757 17.592L6.343 19.006C6.15547 19.1935 5.90116 19.2988 5.636 19.2988C5.37084 19.2988 5.11653 19.1935 4.929 19.006ZM16.243 7.692C16.0555 7.50447 15.9502 7.25016 15.9502 6.985C15.9502 6.71983 16.0555 6.46552 16.243 6.278L17.657 4.864C17.7492 4.76849 17.8596 4.6923 17.9816 4.6399C18.1036 4.58749 18.2348 4.5599 18.3676 4.55875C18.5004 4.55759 18.6321 4.5829 18.755 4.63318C18.8779 4.68346 18.9895 4.75771 19.0834 4.8516C19.1773 4.9455 19.2515 5.05715 19.3018 5.18004C19.3521 5.30294 19.3774 5.43462 19.3763 5.5674C19.3751 5.70018 19.3475 5.8314 19.2951 5.9534C19.2427 6.07541 19.1665 6.18575 19.071 6.278L17.657 7.692C17.4695 7.87947 17.2152 7.98478 16.95 7.98478C16.6848 7.98478 16.4305 7.87947 16.243 7.692ZM17.657 19.006L16.243 17.592C16.0608 17.4034 15.96 17.1508 15.9623 16.8886C15.9646 16.6264 16.0698 16.3756 16.2552 16.1902C16.4406 16.0048 16.6914 15.8996 16.9536 15.8973C17.2158 15.895 17.4684 15.9958 17.657 16.178L19.07 17.592C19.2522 17.7806 19.353 18.0332 19.3507 18.2954C19.3484 18.5576 19.2432 18.8084 19.0578 18.9938C18.8724 19.1792 18.6216 19.2844 18.3594 19.2867C18.0972 19.2889 17.8446 19.1882 17.656 19.006H17.657ZM6.343 7.692L4.929 6.278C4.74684 6.08939 4.64605 5.83679 4.64833 5.5746C4.65061 5.3124 4.75577 5.06159 4.94118 4.87618C5.12659 4.69077 5.3774 4.5856 5.6396 4.58332C5.9018 4.58105 6.1544 4.68184 6.343 4.864L7.757 6.278C7.85251 6.37024 7.92869 6.48059 7.9811 6.60259C8.03351 6.7246 8.0611 6.85582 8.06225 6.9886C8.0634 7.12138 8.0381 7.25305 7.98782 7.37595C7.93754 7.49885 7.86329 7.6105 7.76939 7.70439C7.6755 7.79829 7.56385 7.87254 7.44095 7.92282C7.31806 7.9731 7.18638 7.9984 7.0536 7.99725C6.92082 7.99609 6.7896 7.96851 6.6676 7.9161C6.54559 7.86369 6.43525 7.78751 6.343 7.692Z" fill="#FFD233"/>
</svg>
